# xmcd CD database file
#
# Track frame offsets:
#	150
#	52845
#	61365
#	71782
#	81630
#	91002
#	112412
#	132190
#	147957
#	157440
#	186100
#	207497
#	217275
#	235800
#	245317
#	261985
#	274987
#
# Disc length: 3975 seconds
#
# Revision: 0
# Processed by: cddbd v1.5.2PL0 Copyright (c) Steve Scherf et al.
# Submitted via: CDex 1.70beta3
#
DISCID=170f8511
DTITLE=Sadato - No More Reggae
DYEAR=1994
DGENRE=Jazz
TTITLE0=Data Track
TTITLE1=No Time
TTITLE2=35 Cent Puppy Sandwich
TTITLE3=Strangers in the Night
TTITLE4=Mesa Boogie
TTITLE5=Riders on the Storm
TTITLE6=Silence
TTITLE7=Kurushi Shiawase
TTITLE8=Everybody Wants to Do Something But Not Me
TTITLE9=Death
TTITLE10=65
TTITLE11=Chickasaw
TTITLE12=Life Drunk
TTITLE13=Yurei
TTITLE14=No Mo' Reggae
TTITLE15=Dead End
TTITLE16=Tavalod
EXTD=YEAR: 1994
EXTT0=
EXTT1=
EXTT2=
EXTT3=
EXTT4=
EXTT5=
EXTT6=
EXTT7=
EXTT8=
EXTT9=
EXTT10=
EXTT11=
EXTT12=
EXTT13=
EXTT14=
EXTT15=
EXTT16=
PLAYORDER=
